<mxfile host="app.diagrams.net" agent="Mozilla/5.0 (Windows NT 10.0; Win64; x64) AppleWebKit/537.36 (KHTML, like Gecko) Chrome/126.0.0.0 Safari/537.36" version="24.7.5">
  <diagram name="Page-1" id="1I44hn0gUWHb9xU4oLht">
    <mxGraphModel dx="1221" dy="806" grid="1" gridSize="10" guides="1" tooltips="1" connect="1" arrows="1" fold="1" page="1" pageScale="1" pageWidth="850" pageHeight="1100" math="0" shadow="0">
      <root>
        <mxCell id="0" />
        <mxCell id="1" parent="0" />
        <mxCell id="H32Ofxwu2dETGDYA0uTL-1" value="&lt;font style=&quot;font-size: 18px;&quot;&gt;INICIO&lt;/font&gt;" style="ellipse;whiteSpace=wrap;html=1;" vertex="1" parent="1">
          <mxGeometry x="362.5" y="140" width="205" height="70" as="geometry" />
        </mxCell>
        <mxCell id="H32Ofxwu2dETGDYA0uTL-2" value="" style="endArrow=classic;html=1;rounded=0;entryX=0.5;entryY=0;entryDx=0;entryDy=0;" edge="1" parent="1" source="H32Ofxwu2dETGDYA0uTL-1" target="H32Ofxwu2dETGDYA0uTL-3">
          <mxGeometry width="50" height="50" relative="1" as="geometry">
            <mxPoint x="460" y="160" as="sourcePoint" />
            <mxPoint x="460" y="250" as="targetPoint" />
          </mxGeometry>
        </mxCell>
        <mxCell id="H32Ofxwu2dETGDYA0uTL-3" value="&lt;font style=&quot;font-size: 18px;&quot;&gt;segundos&lt;/font&gt;" style="shape=parallelogram;perimeter=parallelogramPerimeter;whiteSpace=wrap;html=1;fixedSize=1;" vertex="1" parent="1">
          <mxGeometry x="370" y="290" width="180" height="60" as="geometry" />
        </mxCell>
        <mxCell id="H32Ofxwu2dETGDYA0uTL-4" value="" style="endArrow=classic;html=1;rounded=0;exitX=0.5;exitY=1;exitDx=0;exitDy=0;" edge="1" parent="1" source="H32Ofxwu2dETGDYA0uTL-3">
          <mxGeometry width="50" height="50" relative="1" as="geometry">
            <mxPoint x="460" y="390" as="sourcePoint" />
            <mxPoint x="460" y="420" as="targetPoint" />
          </mxGeometry>
        </mxCell>
        <mxCell id="H32Ofxwu2dETGDYA0uTL-6" value="" style="endArrow=classic;html=1;rounded=0;" edge="1" parent="1">
          <mxGeometry width="50" height="50" relative="1" as="geometry">
            <mxPoint x="454.5" y="470" as="sourcePoint" />
            <mxPoint x="454.5" y="550" as="targetPoint" />
          </mxGeometry>
        </mxCell>
        <mxCell id="H32Ofxwu2dETGDYA0uTL-9" value="" style="endArrow=classic;html=1;rounded=0;" edge="1" parent="1">
          <mxGeometry width="50" height="50" relative="1" as="geometry">
            <mxPoint x="457" y="630" as="sourcePoint" />
            <mxPoint x="457" y="710" as="targetPoint" />
          </mxGeometry>
        </mxCell>
        <mxCell id="H32Ofxwu2dETGDYA0uTL-10" value="" style="endArrow=classic;html=1;rounded=0;exitX=0.564;exitY=0.958;exitDx=0;exitDy=0;exitPerimeter=0;" edge="1" parent="1" source="H32Ofxwu2dETGDYA0uTL-21">
          <mxGeometry width="50" height="50" relative="1" as="geometry">
            <mxPoint x="460" y="800" as="sourcePoint" />
            <mxPoint x="460" y="870" as="targetPoint" />
          </mxGeometry>
        </mxCell>
        <mxCell id="H32Ofxwu2dETGDYA0uTL-11" value="&lt;font style=&quot;font-size: 18px;&quot;&gt;FIM&lt;/font&gt;" style="ellipse;whiteSpace=wrap;html=1;" vertex="1" parent="1">
          <mxGeometry x="357.5" y="870" width="210" height="80" as="geometry" />
        </mxCell>
        <mxCell id="H32Ofxwu2dETGDYA0uTL-12" value="&lt;span style=&quot;font-size: 18px;&quot;&gt;h=(segundos/3600)&lt;/span&gt;" style="rounded=0;whiteSpace=wrap;html=1;" vertex="1" parent="1">
          <mxGeometry x="372.5" y="420" width="167.5" height="60" as="geometry" />
        </mxCell>
        <mxCell id="H32Ofxwu2dETGDYA0uTL-16" value="&lt;font style=&quot;font-size: 18px;&quot;&gt;min=(segundos/60)&lt;/font&gt;" style="rounded=0;whiteSpace=wrap;html=1;" vertex="1" parent="1">
          <mxGeometry x="370" y="550" width="170" height="70" as="geometry" />
        </mxCell>
        <mxCell id="H32Ofxwu2dETGDYA0uTL-21" value="&lt;span style=&quot;font-size: 18px;&quot;&gt;hr,min&lt;/span&gt;" style="shape=display;whiteSpace=wrap;html=1;" vertex="1" parent="1">
          <mxGeometry x="352.5" y="710" width="190" height="80" as="geometry" />
        </mxCell>
      </root>
    </mxGraphModel>
  </diagram>
</mxfile>
